<?xml version="1.0" encoding="UTF-8"?><svg id="a" xmlns="http://www.w3.org/2000/svg" viewBox="0 0 26.09 26.09"><defs><style>.b{fill:#8a2387;fill-rule:evenodd;stroke:#8a2387;stroke-linecap:round;stroke-linejoin:round;stroke-width:2px;}</style></defs><path class="b" d="M1.59,1.59c.78-.78,2.06-.78,2.84,0L13.04,10.21,21.66,1.59c.78-.78,2.06-.78,2.84,0,.78,.78,.78,2.06,0,2.84L15.88,13.04l8.62,8.62c.78,.78,.78,2.06,0,2.84-.78,.78-2.06,.78-2.84,0L13.04,15.88,4.43,24.5c-.78,.78-2.06,.78-2.84,0-.78-.78-.78-2.06,0-2.84L10.21,13.04,1.59,4.43c-.78-.78-.78-2.06,0-2.84Z"/></svg>