<?xml version="1.0" encoding="UTF-8"?><svg id="a" xmlns="http://www.w3.org/2000/svg" viewBox="0 0 28.04 28.04"><defs><style>.b{fill:#ee38d1;stroke:#ee38d1;stroke-linecap:round;stroke-linejoin:round;stroke-width:2px;}</style></defs><path class="b" d="M14.02,11.13c2.8,0,5.06-2.27,5.06-5.06S16.82,1,14.02,1s-5.06,2.27-5.06,5.06,2.27,5.06,5.06,5.06Z"/><path class="b" d="M1,26.17v.87H27.04v-.87c0-3.24,0-4.86-.63-6.1-.55-1.09-1.44-1.97-2.53-2.53-1.24-.63-2.86-.63-6.1-.63h-7.52c-3.24,0-4.86,0-6.1,.63-1.09,.55-1.97,1.44-2.53,2.53-.63,1.24-.63,2.86-.63,6.1Z"/></svg>